<?xml version="1.0" standalone="no"?><svg xmlns="http://www.w3.org/2000/svg" viewBox="0 0 1440 320"><path fill="#5000ca" fill-opacity="1" d="M0,64L75.8,32L151.6,64L227.4,160L303.2,64L378.9,192L454.7,160L530.5,96L606.3,32L682.1,256L757.9,32L833.7,128L909.5,128L985.3,256L1061.1,160L1136.8,96L1212.6,192L1288.4,320L1364.2,320L1440,224L1440,0L1364.2,0L1288.4,0L1212.6,0L1136.8,0L1061.1,0L985.3,0L909.5,0L833.7,0L757.9,0L682.1,0L606.3,0L530.5,0L454.7,0L378.9,0L303.2,0L227.4,0L151.6,0L75.8,0L0,0Z"></path></svg>