<?xml version="1.0" standalone="no"?><svg xmlns="http://www.w3.org/2000/svg" viewBox="0 0 1440 320"><path fill="#5000ca" fill-opacity="1" d="M0,64L75.8,32L151.6,64L227.4,160L303.2,64L378.9,192L454.7,160L530.5,96L606.3,32L682.1,256L757.9,32L833.7,128L909.5,128L985.3,256L1061.1,160L1136.8,96L1212.6,192L1288.4,320L1364.2,320L1440,224L1440,320L1364.2,320L1288.4,320L1212.6,320L1136.8,320L1061.1,320L985.3,320L909.5,320L833.7,320L757.9,320L682.1,320L606.3,320L530.5,320L454.7,320L378.9,320L303.2,320L227.4,320L151.6,320L75.8,320L0,320Z"></path></svg>